<?xml version="1.0" encoding="utf-8"?>
<!-- Generator: Adobe Illustrator 16.0.0, SVG Export Plug-In . SVG Version: 6.00 Build 0)  -->
<!DOCTYPE svg PUBLIC "-//W3C//DTD SVG 1.1//EN" "http://www.w3.org/Graphics/SVG/1.1/DTD/svg11.dtd">
<svg version="1.1" id="Layer_1" xmlns="http://www.w3.org/2000/svg" xmlns:xlink="http://www.w3.org/1999/xlink" x="0px" y="0px"
	 width="32px" height="32px" viewBox="0 0 32 32" enable-background="new 0 0 32 32" xml:space="preserve">
<g>
	<defs>
		<rect id="SVGID_1_" y="1.094" width="32" height="29.813"/>
	</defs>
	<clipPath id="SVGID_2_">
		<use xlink:href="#SVGID_1_"  overflow="visible"/>
	</clipPath>
	<path clip-path="url(#SVGID_2_)" d="M29.33,5.464c0.055,0,0.111,0.057,0.111,0.11v22.665l0.002,0.111H2.667
		c-0.057,0-0.112-0.055-0.112-0.111V5.574c0-0.054,0.055-0.11,0.112-0.11H29.33 M29.33,2.908H2.667C1.2,2.908,0,4.108,0,5.574
		v22.665c0,1.466,1.2,2.667,2.667,2.667h27.997c1.467,0,1.332-1.201,1.332-2.667V5.574C31.996,4.108,30.797,2.908,29.33,2.908"/>
	<rect y="9.63" clip-path="url(#SVGID_2_)" width="30.664" height="2.556"/>
	<rect x="8.055" y="15.049" clip-path="url(#SVGID_2_)" width="2.556" height="3.408"/>
	<rect x="14.722" y="15.049" clip-path="url(#SVGID_2_)" width="2.555" height="3.408"/>
	<rect x="21.386" y="15.049" clip-path="url(#SVGID_2_)" width="2.556" height="3.408"/>
	<rect x="8.055" y="21.204" clip-path="url(#SVGID_2_)" width="2.556" height="3.406"/>
	<rect x="14.722" y="21.204" clip-path="url(#SVGID_2_)" width="2.555" height="3.406"/>
	<rect x="21.386" y="21.204" clip-path="url(#SVGID_2_)" width="2.556" height="3.406"/>
	<rect x="8.055" y="1.094" clip-path="url(#SVGID_2_)" width="2.556" height="6.814"/>
	<rect x="21.386" y="1.094" clip-path="url(#SVGID_2_)" width="2.556" height="6.814"/>
</g>
</svg>
